<svg width="26" height="27" viewBox="0 0 26 27" fill="none" xmlns="http://www.w3.org/2000/svg">
<path d="M13 24.018C11.804 24.0121 10.8343 23.0472 10.8225 21.8513H15.1558C15.1581 22.1409 15.1029 22.4281 14.9933 22.6963C14.7091 23.3484 14.1286 23.8241 13.4333 23.9746H13.4279H13.4116H13.3921H13.3824C13.2565 24.0008 13.1285 24.0153 13 24.018ZM21.6666 20.768H4.33331V18.6013L6.49998 17.518V11.5596C6.44291 10.0312 6.78808 8.5145 7.50098 7.16128C8.2106 5.90626 9.42357 5.01507 10.8333 4.71295V2.35128H15.1666V4.71295C17.9606 5.37812 19.5 7.80912 19.5 11.5596V17.518L21.6666 18.6013V20.768Z" fill="#C4C4C4"/>
</svg>
