<svg width="26" height="27" viewBox="0 0 26 27" fill="none" xmlns="http://www.w3.org/2000/svg">
<path d="M5.41667 23.6269H3.25V22.5436C3.25478 18.3574 6.64715 14.965 10.8333 14.9603H15.1667C19.3528 14.965 22.7452 18.3574 22.75 22.5436V23.6269H20.5833V22.5436C20.5798 19.5535 18.1567 17.1305 15.1667 17.1269H10.8333C7.84328 17.1305 5.42025 19.5535 5.41667 22.5436V23.6269ZM13 13.8769C10.0085 13.8769 7.58333 11.4518 7.58333 8.46026C7.58333 5.46871 10.0085 3.04359 13 3.04359C15.9915 3.04359 18.4167 5.46871 18.4167 8.46026C18.4131 11.4503 15.9901 13.8733 13 13.8769ZM13 5.21026C11.2051 5.21026 9.75 6.66533 9.75 8.46026C9.75 10.2552 11.2051 11.7103 13 11.7103C14.7949 11.7103 16.25 10.2552 16.25 8.46026C16.25 6.66533 14.7949 5.21026 13 5.21026Z" fill="#C4C4C4"/>
</svg>
